<svg width="936" height="927" viewBox="0 0 936 927" fill="none" xmlns="http://www.w3.org/2000/svg">
<path d="M468 0C316.218 0 139.133 91.8657 139.133 325.705C139.133 484.376 392.109 835.134 468 927C472.113 921.4 476.946 914.868 482.397 907.502C566.362 794.038 796.867 482.549 796.867 325.705C796.867 91.8657 619.782 0 468 0Z" fill="#FF4329" fill-opacity="0.93"/>
<path d="M468 0C316.218 0 139.133 91.8657 139.133 325.705C139.133 484.376 392.109 835.134 468 927C472.113 921.4 476.946 914.868 482.397 907.502C566.362 794.038 796.867 482.549 796.867 325.705C796.867 91.8657 619.782 0 468 0Z" stroke="black"/>
<path d="M697.551 281.423L489.053 72.7351C483.237 66.9142 475.612 64 467.995 64C460.377 64 452.752 66.9142 446.936 72.7351L238.438 281.423C226.807 293.094 227.388 311.354 239.019 322.996C250.68 334.698 267.725 336.419 279.393 324.74L289.565 314.552V511.188C289.565 527.666 302.887 541 319.351 541H438.492V421.75H498.063V541H617.205C633.669 541 646.99 527.666 646.99 511.188V315.133L655.889 324.04C667.52 335.681 685.294 334.638 696.963 322.989C708.601 311.354 709.212 293.064 697.551 281.423Z" fill="#E9C2B9"/>
</svg>
